<mxfile host="app.diagrams.net" modified="2021-09-29T23:12:10.262Z" agent="5.0 (Windows NT 10.0; Win64; x64) AppleWebKit/537.36 (KHTML, like Gecko) Chrome/94.0.4606.61 Safari/537.36 Edg/94.0.992.31" etag="e0OtOtRt98QP1lP44zKK" version="15.3.8" type="github">
  <diagram id="XWS46hxN-W9Ml-xrN0ms" name="Page-1">
    <mxGraphModel dx="870" dy="618" grid="1" gridSize="10" guides="1" tooltips="1" connect="1" arrows="1" fold="1" page="1" pageScale="1" pageWidth="850" pageHeight="1100" math="0" shadow="0">
      <root>
        <mxCell id="0" />
        <mxCell id="1" parent="0" />
        <mxCell id="Pxn03LOzXXOiAsxrE92J-22" style="edgeStyle=orthogonalEdgeStyle;rounded=0;orthogonalLoop=1;jettySize=auto;html=1;exitX=0.5;exitY=0;exitDx=0;exitDy=0;entryX=0.5;entryY=1;entryDx=0;entryDy=0;dashed=1;" edge="1" parent="1" source="Pxn03LOzXXOiAsxrE92J-2" target="Pxn03LOzXXOiAsxrE92J-8">
          <mxGeometry relative="1" as="geometry" />
        </mxCell>
        <mxCell id="Pxn03LOzXXOiAsxrE92J-2" value="Open Calendar" style="ellipse;whiteSpace=wrap;html=1;" vertex="1" parent="1">
          <mxGeometry x="180" y="410" width="120" height="40" as="geometry" />
        </mxCell>
        <mxCell id="Pxn03LOzXXOiAsxrE92J-19" style="edgeStyle=orthogonalEdgeStyle;rounded=0;orthogonalLoop=1;jettySize=auto;html=1;exitX=1;exitY=0.5;exitDx=0;exitDy=0;entryX=0;entryY=0;entryDx=0;entryDy=0;dashed=1;" edge="1" parent="1" source="Pxn03LOzXXOiAsxrE92J-3" target="Pxn03LOzXXOiAsxrE92J-9">
          <mxGeometry relative="1" as="geometry" />
        </mxCell>
        <mxCell id="Pxn03LOzXXOiAsxrE92J-3" value="Load Next Week" style="ellipse;whiteSpace=wrap;html=1;" vertex="1" parent="1">
          <mxGeometry x="410" y="230" width="120" height="40" as="geometry" />
        </mxCell>
        <mxCell id="Pxn03LOzXXOiAsxrE92J-24" style="edgeStyle=orthogonalEdgeStyle;rounded=0;orthogonalLoop=1;jettySize=auto;html=1;exitX=1;exitY=0.5;exitDx=0;exitDy=0;entryX=0;entryY=0.5;entryDx=0;entryDy=0;dashed=1;" edge="1" parent="1" source="Pxn03LOzXXOiAsxrE92J-4" target="Pxn03LOzXXOiAsxrE92J-23">
          <mxGeometry relative="1" as="geometry" />
        </mxCell>
        <mxCell id="Pxn03LOzXXOiAsxrE92J-25" value="&amp;lt;&amp;lt;includes&amp;gt;&amp;gt;" style="edgeLabel;html=1;align=center;verticalAlign=middle;resizable=0;points=[];fontStyle=2" vertex="1" connectable="0" parent="Pxn03LOzXXOiAsxrE92J-24">
          <mxGeometry x="-0.3" y="-4" relative="1" as="geometry">
            <mxPoint x="30" y="-4" as="offset" />
          </mxGeometry>
        </mxCell>
        <mxCell id="Pxn03LOzXXOiAsxrE92J-4" value="Show Event Details" style="ellipse;whiteSpace=wrap;html=1;" vertex="1" parent="1">
          <mxGeometry x="180" y="470" width="120" height="40" as="geometry" />
        </mxCell>
        <mxCell id="Pxn03LOzXXOiAsxrE92J-16" style="edgeStyle=orthogonalEdgeStyle;rounded=0;orthogonalLoop=1;jettySize=auto;html=1;exitX=1;exitY=0.5;exitDx=0;exitDy=0;entryX=0;entryY=0.5;entryDx=0;entryDy=0;dashed=1;" edge="1" parent="1" source="Pxn03LOzXXOiAsxrE92J-5" target="Pxn03LOzXXOiAsxrE92J-7">
          <mxGeometry relative="1" as="geometry" />
        </mxCell>
        <mxCell id="Pxn03LOzXXOiAsxrE92J-5" value="Show Previous Week" style="ellipse;whiteSpace=wrap;html=1;" vertex="1" parent="1">
          <mxGeometry x="180" y="290" width="120" height="40" as="geometry" />
        </mxCell>
        <mxCell id="Pxn03LOzXXOiAsxrE92J-17" style="edgeStyle=orthogonalEdgeStyle;rounded=0;orthogonalLoop=1;jettySize=auto;html=1;exitX=1;exitY=0.5;exitDx=0;exitDy=0;entryX=0;entryY=0.5;entryDx=0;entryDy=0;dashed=1;" edge="1" parent="1" source="Pxn03LOzXXOiAsxrE92J-6" target="Pxn03LOzXXOiAsxrE92J-3">
          <mxGeometry relative="1" as="geometry" />
        </mxCell>
        <mxCell id="Pxn03LOzXXOiAsxrE92J-6" value="Show Next Week" style="ellipse;whiteSpace=wrap;html=1;" vertex="1" parent="1">
          <mxGeometry x="180" y="230" width="120" height="40" as="geometry" />
        </mxCell>
        <mxCell id="Pxn03LOzXXOiAsxrE92J-18" style="edgeStyle=orthogonalEdgeStyle;rounded=0;orthogonalLoop=1;jettySize=auto;html=1;exitX=1;exitY=0.5;exitDx=0;exitDy=0;entryX=0;entryY=0.5;entryDx=0;entryDy=0;dashed=1;" edge="1" parent="1" source="Pxn03LOzXXOiAsxrE92J-7" target="Pxn03LOzXXOiAsxrE92J-9">
          <mxGeometry relative="1" as="geometry" />
        </mxCell>
        <mxCell id="Pxn03LOzXXOiAsxrE92J-7" value="Load Previous Week" style="ellipse;whiteSpace=wrap;html=1;" vertex="1" parent="1">
          <mxGeometry x="410" y="290" width="120" height="40" as="geometry" />
        </mxCell>
        <mxCell id="Pxn03LOzXXOiAsxrE92J-21" style="edgeStyle=orthogonalEdgeStyle;rounded=0;orthogonalLoop=1;jettySize=auto;html=1;exitX=1;exitY=0.5;exitDx=0;exitDy=0;entryX=0;entryY=1;entryDx=0;entryDy=0;dashed=1;" edge="1" parent="1" source="Pxn03LOzXXOiAsxrE92J-8" target="Pxn03LOzXXOiAsxrE92J-9">
          <mxGeometry relative="1" as="geometry" />
        </mxCell>
        <mxCell id="Pxn03LOzXXOiAsxrE92J-8" value="Refresh Current Week" style="ellipse;whiteSpace=wrap;html=1;" vertex="1" parent="1">
          <mxGeometry x="180" y="350" width="120" height="40" as="geometry" />
        </mxCell>
        <mxCell id="Pxn03LOzXXOiAsxrE92J-9" value="Synchronize Events" style="ellipse;whiteSpace=wrap;html=1;" vertex="1" parent="1">
          <mxGeometry x="610" y="290" width="120" height="40" as="geometry" />
        </mxCell>
        <mxCell id="Pxn03LOzXXOiAsxrE92J-33" style="edgeStyle=orthogonalEdgeStyle;rounded=0;orthogonalLoop=1;jettySize=auto;html=1;exitX=1;exitY=0.3333333333333333;exitDx=0;exitDy=0;exitPerimeter=0;entryX=0;entryY=0.5;entryDx=0;entryDy=0;" edge="1" parent="1" source="Pxn03LOzXXOiAsxrE92J-12" target="Pxn03LOzXXOiAsxrE92J-6">
          <mxGeometry relative="1" as="geometry" />
        </mxCell>
        <mxCell id="Pxn03LOzXXOiAsxrE92J-34" style="edgeStyle=orthogonalEdgeStyle;rounded=0;orthogonalLoop=1;jettySize=auto;html=1;exitX=1;exitY=0.3333333333333333;exitDx=0;exitDy=0;exitPerimeter=0;entryX=0;entryY=0.5;entryDx=0;entryDy=0;" edge="1" parent="1" source="Pxn03LOzXXOiAsxrE92J-12" target="Pxn03LOzXXOiAsxrE92J-5">
          <mxGeometry relative="1" as="geometry" />
        </mxCell>
        <mxCell id="Pxn03LOzXXOiAsxrE92J-35" style="edgeStyle=orthogonalEdgeStyle;rounded=0;orthogonalLoop=1;jettySize=auto;html=1;exitX=1;exitY=0.3333333333333333;exitDx=0;exitDy=0;exitPerimeter=0;entryX=0;entryY=0.5;entryDx=0;entryDy=0;" edge="1" parent="1" source="Pxn03LOzXXOiAsxrE92J-12" target="Pxn03LOzXXOiAsxrE92J-8">
          <mxGeometry relative="1" as="geometry" />
        </mxCell>
        <mxCell id="Pxn03LOzXXOiAsxrE92J-36" style="edgeStyle=orthogonalEdgeStyle;rounded=0;orthogonalLoop=1;jettySize=auto;html=1;exitX=1;exitY=0.3333333333333333;exitDx=0;exitDy=0;exitPerimeter=0;entryX=0;entryY=0.5;entryDx=0;entryDy=0;" edge="1" parent="1" source="Pxn03LOzXXOiAsxrE92J-12" target="Pxn03LOzXXOiAsxrE92J-2">
          <mxGeometry relative="1" as="geometry" />
        </mxCell>
        <mxCell id="Pxn03LOzXXOiAsxrE92J-37" style="edgeStyle=orthogonalEdgeStyle;rounded=0;orthogonalLoop=1;jettySize=auto;html=1;exitX=1;exitY=0.3333333333333333;exitDx=0;exitDy=0;exitPerimeter=0;entryX=0;entryY=0.5;entryDx=0;entryDy=0;" edge="1" parent="1" source="Pxn03LOzXXOiAsxrE92J-12" target="Pxn03LOzXXOiAsxrE92J-4">
          <mxGeometry relative="1" as="geometry" />
        </mxCell>
        <mxCell id="Pxn03LOzXXOiAsxrE92J-12" value="User" style="shape=umlActor;verticalLabelPosition=bottom;verticalAlign=top;html=1;outlineConnect=0;" vertex="1" parent="1">
          <mxGeometry x="50" y="320" width="30" height="60" as="geometry" />
        </mxCell>
        <mxCell id="Pxn03LOzXXOiAsxrE92J-38" style="edgeStyle=orthogonalEdgeStyle;rounded=0;orthogonalLoop=1;jettySize=auto;html=1;exitX=0;exitY=0.3333333333333333;exitDx=0;exitDy=0;exitPerimeter=0;entryX=1;entryY=0.5;entryDx=0;entryDy=0;" edge="1" parent="1" source="Pxn03LOzXXOiAsxrE92J-13" target="Pxn03LOzXXOiAsxrE92J-9">
          <mxGeometry relative="1" as="geometry" />
        </mxCell>
        <mxCell id="Pxn03LOzXXOiAsxrE92J-13" value="Server" style="shape=umlActor;verticalLabelPosition=bottom;verticalAlign=top;html=1;outlineConnect=0;" vertex="1" parent="1">
          <mxGeometry x="820" y="230" width="30" height="60" as="geometry" />
        </mxCell>
        <mxCell id="Pxn03LOzXXOiAsxrE92J-39" style="edgeStyle=orthogonalEdgeStyle;rounded=0;orthogonalLoop=1;jettySize=auto;html=1;exitX=0;exitY=0.3333333333333333;exitDx=0;exitDy=0;exitPerimeter=0;entryX=0.5;entryY=1;entryDx=0;entryDy=0;" edge="1" parent="1" source="Pxn03LOzXXOiAsxrE92J-14" target="Pxn03LOzXXOiAsxrE92J-9">
          <mxGeometry relative="1" as="geometry" />
        </mxCell>
        <mxCell id="Pxn03LOzXXOiAsxrE92J-40" style="edgeStyle=orthogonalEdgeStyle;rounded=0;orthogonalLoop=1;jettySize=auto;html=1;exitX=0;exitY=0.3333333333333333;exitDx=0;exitDy=0;exitPerimeter=0;entryX=1;entryY=0.5;entryDx=0;entryDy=0;" edge="1" parent="1" source="Pxn03LOzXXOiAsxrE92J-14" target="Pxn03LOzXXOiAsxrE92J-23">
          <mxGeometry relative="1" as="geometry" />
        </mxCell>
        <mxCell id="Pxn03LOzXXOiAsxrE92J-14" value="Local Storage" style="shape=umlActor;verticalLabelPosition=bottom;verticalAlign=top;html=1;outlineConnect=0;" vertex="1" parent="1">
          <mxGeometry x="820" y="400" width="30" height="60" as="geometry" />
        </mxCell>
        <mxCell id="Pxn03LOzXXOiAsxrE92J-23" value="Load Event Data" style="ellipse;whiteSpace=wrap;html=1;" vertex="1" parent="1">
          <mxGeometry x="570" y="470" width="120" height="40" as="geometry" />
        </mxCell>
        <mxCell id="Pxn03LOzXXOiAsxrE92J-27" value="&amp;lt;&amp;lt;includes&amp;gt;&amp;gt;" style="edgeLabel;html=1;align=center;verticalAlign=middle;resizable=0;points=[];fontStyle=2" vertex="1" connectable="0" parent="1">
          <mxGeometry x="500" y="370" as="geometry" />
        </mxCell>
        <mxCell id="Pxn03LOzXXOiAsxrE92J-28" value="&amp;lt;&amp;lt;includes&amp;gt;&amp;gt;" style="edgeLabel;html=1;align=center;verticalAlign=middle;resizable=0;points=[];fontStyle=2" vertex="1" connectable="0" parent="1">
          <mxGeometry x="350" y="310" as="geometry" />
        </mxCell>
        <mxCell id="Pxn03LOzXXOiAsxrE92J-29" value="&amp;lt;&amp;lt;includes&amp;gt;&amp;gt;" style="edgeLabel;html=1;align=center;verticalAlign=middle;resizable=0;points=[];fontStyle=2" vertex="1" connectable="0" parent="1">
          <mxGeometry x="350" y="250" as="geometry" />
        </mxCell>
        <mxCell id="Pxn03LOzXXOiAsxrE92J-30" value="&amp;lt;&amp;lt;includes&amp;gt;&amp;gt;" style="edgeLabel;html=1;align=center;verticalAlign=middle;resizable=0;points=[];fontStyle=2" vertex="1" connectable="0" parent="1">
          <mxGeometry x="570" y="310" as="geometry" />
        </mxCell>
        <mxCell id="Pxn03LOzXXOiAsxrE92J-31" value="&amp;lt;&amp;lt;includes&amp;gt;&amp;gt;" style="edgeLabel;html=1;align=center;verticalAlign=middle;resizable=0;points=[];fontStyle=2" vertex="1" connectable="0" parent="1">
          <mxGeometry x="620" y="250" as="geometry" />
        </mxCell>
        <mxCell id="Pxn03LOzXXOiAsxrE92J-32" value="Week Calendar View" style="swimlane;" vertex="1" parent="1">
          <mxGeometry x="170" y="190" width="570" height="330" as="geometry" />
        </mxCell>
        <mxCell id="Pxn03LOzXXOiAsxrE92J-26" value="&amp;lt;&amp;lt;includes&amp;gt;&amp;gt;" style="edgeLabel;html=1;align=center;verticalAlign=middle;resizable=0;points=[];fontStyle=2" vertex="1" connectable="0" parent="Pxn03LOzXXOiAsxrE92J-32">
          <mxGeometry x="90" y="210" as="geometry" />
        </mxCell>
      </root>
    </mxGraphModel>
  </diagram>
</mxfile>
